<svg width="512" height="512" viewBox="0 0 512 512" fill="none" xmlns="http://www.w3.org/2000/svg">
<path d="M307.94 248L216 154.52V242C216 243.591 216.632 245.117 217.757 246.243C218.883 247.368 220.409 248 222 248H307.94Z" fill="black"/>
<path d="M184 268V144H60C56.8174 144 53.7652 145.264 51.5147 147.515C49.2643 149.765 48 152.817 48 156V484C48 487.183 49.2643 490.235 51.5147 492.485C53.7652 494.736 56.8174 496 60 496H308C311.183 496 314.235 494.736 316.485 492.485C318.736 490.235 320 487.183 320 484V280H196C192.817 280 189.765 278.736 187.515 276.485C185.264 274.235 184 271.183 184 268ZM366 120H451.94L360 26.52V114C360 115.591 360.632 117.117 361.757 118.243C362.883 119.368 364.409 120 366 120Z" fill="black"/>
<path d="M340 152C336.817 152 333.765 150.736 331.515 148.485C329.264 146.235 328 143.183 328 140V16H172C168.817 16 165.765 17.2643 163.515 19.5147C161.264 21.7652 160 24.8174 160 28V112H202.12C207.496 112.021 212.815 113.105 217.771 115.188C222.727 117.272 227.223 120.314 231 124.14L340.16 235.14C347.775 242.867 352.028 253.291 351.99 264.14V400H452C455.183 400 458.235 398.736 460.485 396.485C462.736 394.235 464 391.183 464 388V152H340Z" fill="black"/>
</svg>
