<svg width="740" height="218" viewBox="0 0 740 218" fill="none" xmlns="http://www.w3.org/2000/svg">
<path d="M174 1H115.474L70.5681 69.6769L37.8085 19.8308C25.1464 39.0308 7.99362 49.4923 1 52.3231L45.9064 119.892V217H95.2298V119.892L174 1Z" fill="#F0214F" stroke="#F0214F"/>
<path d="M191.285 11L174 207H218.133L227.695 89.8421L269.622 205.158H295.366L306.767 173.474C306.179 164.042 311.916 153.825 314.858 149.895L336.557 89.8421L340.602 130C358.844 122.042 377.135 129.386 384 134.053L372.967 11H326.259L282.126 123.737L237.993 11H191.285Z" fill="black" stroke="black"/>
<circle cx="353.5" cy="178.5" r="22" fill="black" stroke="black"/>
<path d="M406.653 193V175.72L393.373 151.72V151.4H403.027L408.253 161C408.751 161.889 409.231 162.813 409.693 163.773C410.191 164.698 410.671 165.764 411.133 166.973H412.2C412.698 165.764 413.178 164.698 413.64 163.773C414.138 162.813 414.618 161.889 415.08 161L420.147 151.4H428.893V151.72L415.613 175.827V193H406.653ZM433.303 193V151.4H461.677V158.44H442.157V167.613H457.197V174.12H442.157V185.96H461.997V193H433.303ZM468.491 193V151.4H486.144C489.7 151.4 492.58 151.916 494.784 152.947C497.024 153.942 498.66 155.329 499.691 157.107C500.757 158.849 501.291 160.876 501.291 163.187C501.291 165.818 500.597 168.093 499.211 170.013C497.824 171.933 495.78 173.302 493.078 174.12L502.411 192.68V193H492.918L484.438 175.4H477.344V193H468.491ZM477.344 168.893H484.864C487.175 168.893 488.971 168.502 490.251 167.72C491.566 166.938 492.224 165.533 492.224 163.507C492.224 161.444 491.566 160.04 490.251 159.293C488.935 158.511 487.14 158.12 484.864 158.12H477.344V168.893ZM515.67 193V158.44H503.35V151.4H536.95V158.44H524.63V193H515.67ZM542.616 193V151.4H551.576V193H542.616ZM589.078 193.8C583.033 193.8 578.34 191.898 574.997 188.093C571.691 184.289 570.038 178.991 570.038 172.2C570.038 165.48 571.673 160.2 574.944 156.36C578.215 152.52 582.909 150.6 589.024 150.6C592.686 150.6 595.815 151.293 598.411 152.68C601.006 154.031 603.033 155.916 604.491 158.333C605.949 160.751 606.802 163.524 607.051 166.653H598.144C597.86 163.738 596.918 161.462 595.318 159.827C593.718 158.156 591.638 157.32 589.078 157.32C585.842 157.32 583.406 158.618 581.771 161.213C580.135 163.809 579.318 167.489 579.318 172.253C579.318 177.196 580.153 180.911 581.824 183.4C583.531 185.853 585.931 187.08 589.024 187.08C591.691 187.08 593.806 186.227 595.371 184.52C596.971 182.813 597.895 180.556 598.144 177.747H607.051C606.802 180.876 605.949 183.649 604.491 186.067C603.033 188.484 601.006 190.387 598.411 191.773C595.851 193.124 592.74 193.8 589.078 193.8ZM629.771 193.747C625.362 193.747 621.682 192.876 618.731 191.133C615.815 189.356 613.629 186.849 612.171 183.613C610.749 180.378 610.038 176.573 610.038 172.2C610.038 167.791 610.749 163.987 612.171 160.787C613.629 157.551 615.815 155.062 618.731 153.32C621.682 151.542 625.362 150.653 629.771 150.653C634.215 150.653 637.895 151.542 640.811 153.32C643.726 155.062 645.895 157.551 647.318 160.787C648.775 163.987 649.504 167.791 649.504 172.2C649.504 176.573 648.775 180.378 647.318 183.613C645.895 186.849 643.726 189.356 640.811 191.133C637.895 192.876 634.215 193.747 629.771 193.747ZM629.771 187.027C633.362 187.027 635.993 185.747 637.664 183.187C639.371 180.591 640.224 176.929 640.224 172.2C640.224 167.436 639.371 163.773 637.664 161.213C635.993 158.653 633.362 157.373 629.771 157.373C626.18 157.373 623.531 158.653 621.824 161.213C620.153 163.773 619.318 167.436 619.318 172.2C619.318 176.929 620.153 180.591 621.824 183.187C623.531 185.747 626.18 187.027 629.771 187.027ZM655.178 193V151.4H670.005C677.401 151.4 682.769 153.231 686.112 156.893C689.454 160.52 691.125 165.622 691.125 172.2C691.125 178.778 689.454 183.898 686.112 187.56C682.769 191.187 677.401 193 670.005 193H655.178ZM664.138 186.067H669.472C672.209 186.067 674.485 185.658 676.298 184.84C678.147 183.987 679.534 182.564 680.458 180.573C681.383 178.547 681.845 175.756 681.845 172.2C681.845 168.644 681.383 165.871 680.458 163.88C679.534 161.853 678.147 160.431 676.298 159.613C674.485 158.76 672.209 158.333 669.472 158.333H664.138V186.067ZM696.803 193V151.4H725.177V158.44H705.657V167.613H720.697V174.12H705.657V185.96H725.497V193H696.803Z" fill="black"/>
</svg>
